<?xml version="1.0" encoding="UTF-8"?>
<svg version="1.1" xmlns="http://www.w3.org/2000/svg" width="233" height="216">
<path d="M0 0 C0.98896298 -0.00679667 0.98896298 -0.00679667 1.99790502 -0.01373065 C4.20564495 -0.02638387 6.41313848 -0.0247537 8.62091064 -0.02310181 C10.20456255 -0.0290866 11.78821154 -0.03589204 13.37185669 -0.04345703 C17.67368826 -0.06113197 21.97544028 -0.06581312 26.27730465 -0.0670886 C28.96626297 -0.06851023 31.65520106 -0.0727801 34.34415436 -0.07808304 C43.72906274 -0.09659017 53.1139143 -0.10475303 62.49884033 -0.10317993 C71.23982478 -0.10197922 79.98056203 -0.12306594 88.72148395 -0.15466726 C96.23076879 -0.18084593 103.73997299 -0.19154652 111.2493031 -0.19026911 C115.73207361 -0.18975983 120.21462458 -0.19542401 124.69734955 -0.21662521 C128.9163529 -0.23603378 133.13492795 -0.23611435 137.35394669 -0.22159195 C138.89865115 -0.21950579 140.4433826 -0.22419326 141.98804092 -0.23631287 C158.66110256 -0.35861191 158.66110256 -0.35861191 165.48126221 6.26742554 C165.93630127 6.92742554 166.39134033 7.58742554 166.86016846 8.26742554 C167.33325439 8.92742554 167.80634033 9.58742554 168.29376221 10.26742554 C170.57650771 14.31159751 170.55292233 18.14501309 170.56983948 22.73086548 C170.57351617 23.37792348 170.57719285 24.02498147 170.58098096 24.69164729 C170.59198594 26.85786532 170.59585619 29.02403534 170.59967041 31.1902771 C170.60593744 32.74437105 170.61258446 34.2984635 170.61958313 35.85255432 C170.64059645 40.95437583 170.65098259 46.05619755 170.66094971 51.15805054 C170.6649982 52.91615566 170.66911516 54.67426062 170.67329979 56.43236542 C170.69234503 64.69235484 170.70657777 72.95233535 170.71491176 81.2123425 C170.72468372 90.7395726 170.75100492 100.26657034 170.79141265 109.79371858 C170.82159265 117.16286738 170.8363824 124.53194965 170.83969277 131.90115905 C170.84204099 136.30010911 170.85097174 140.69881075 170.87615395 145.0976944 C170.89947295 149.23788651 170.90365266 153.37766728 170.89339256 157.5179081 C170.89289803 159.03359408 170.89919416 160.54930058 170.91294861 162.06492424 C170.99034974 171.10280691 170.80029371 178.09023403 164.71173096 185.29086304 C163.88802002 185.95988647 163.88802002 185.95988647 163.04766846 186.64242554 C162.50368408 187.10390991 161.95969971 187.56539429 161.39923096 188.04086304 C156.73370999 190.93606775 152.15241804 191.51848238 146.74995422 191.52812195 C146.10456536 191.5319475 145.4591765 191.53577304 144.7942304 191.53971452 C142.6456338 191.54997991 140.49730767 191.54606483 138.34869385 191.54208374 C136.80253351 191.54643378 135.25637533 191.55161791 133.71022034 191.55757141 C129.52013224 191.57094074 125.33013446 191.57154242 121.14002919 191.56900811 C117.63855308 191.56793707 114.13709513 191.57282515 110.63562292 191.57761353 C102.37362487 191.58870142 94.11167229 191.58915007 85.84967041 191.58309937 C77.33360587 191.57705841 68.8177065 191.58937531 60.30167013 191.61066943 C52.98259367 191.62829593 45.66356973 191.63428517 38.34447283 191.63103169 C33.97638388 191.62922047 29.60841278 191.63183896 25.24034309 191.64574623 C21.13217171 191.65833715 17.02425753 191.6563686 12.91609001 191.64333534 C11.41128324 191.64097282 9.90645829 191.64369265 8.40167236 191.65195847 C-1.1476862 191.70061773 -8.77943231 191.58301203 -16.23633575 184.80486298 C-22.66555584 177.43383039 -22.14984802 168.18274317 -22.09490967 158.97640991 C-22.10033812 157.44289996 -22.10746482 155.90939523 -22.1161499 154.37590027 C-22.13430047 150.23326761 -22.12735021 146.09103586 -22.11463356 141.94839668 C-22.1044628 137.60042413 -22.11391051 133.25248449 -22.12017822 128.9045105 C-22.12744281 121.60468421 -22.11789824 114.30502013 -22.09881592 107.00521851 C-22.07704941 98.58165344 -22.08410163 90.15847572 -22.10612154 81.73492002 C-22.12430952 74.48536742 -22.1268173 67.235931 -22.11636686 59.98636293 C-22.11015056 55.66406696 -22.10924471 51.34195268 -22.12251282 47.01966858 C-22.13412037 42.95485612 -22.12595691 38.89054006 -22.10293579 34.82578087 C-22.09767474 33.33955901 -22.09911759 31.85329493 -22.10798645 30.36709023 C-22.15551831 21.58840392 -22.19672811 13.1173096 -15.79810333 6.39942169 C-10.74767084 1.79298031 -6.9227223 0.01965397 0 0 Z M103.42266846 32.26742554 C98.03135008 39.06174782 98.2144607 46.13845763 98.17266846 54.39242554 C98.15204346 55.38758179 98.13141846 56.38273804 98.11016846 57.40805054 C98.07297618 64.53037126 98.279193 72.56501844 103.09918213 78.24203491 C108.13822305 82.95296234 112.54852194 83.54436332 119.37188721 83.41586304 C124.13962354 83.07076974 127.46704251 82.04930131 131.17266846 79.01742554 C137.59155176 71.17212372 137.42266846 64.23602343 137.42266846 54.26742554 C131.15266846 54.26742554 124.88266846 54.26742554 118.42266846 54.26742554 C118.42266846 55.91742554 118.42266846 57.56742554 118.42266846 59.26742554 C120.08609683 60.93085391 122.20523935 60.6279065 124.48516846 60.82992554 C125.40427002 60.9137146 126.32337158 60.99750366 127.27032471 61.08383179 C128.33573486 61.17471069 128.33573486 61.17471069 129.42266846 61.26742554 C127.61883823 71.19910256 127.61883823 71.19910256 124.42266846 74.26742554 C119.64465234 75.86009758 115.31008444 75.84185649 110.54766846 74.39242554 C105.92378419 69.76854127 106.30895997 62.48071493 106.17266846 56.26742554 C106.32386865 49.35668716 106.60679173 43.01875392 110.48516846 37.14242554 C114.51096607 34.57276749 117.76771453 34.33137502 122.42266846 35.26742554 C125.29296714 37.06136222 126.91398484 38.2500583 128.42266846 41.26742554 C132.03259225 40.61157364 132.03259225 40.61157364 135.42266846 39.26742554 C133.85314113 34.13079066 131.13394926 31.93360912 126.64923096 29.17758179 C119.48193348 26.24779176 109.41033768 27.2088774 103.42266846 32.26742554 Z M11.42266846 61.26742554 C11.42266846 62.58742554 11.42266846 63.90742554 11.42266846 65.26742554 C12.12134033 65.43758179 12.82001221 65.60773804 13.53985596 65.78305054 C14.44993408 66.02539429 15.36001221 66.26773804 16.29766846 66.51742554 C17.20259033 66.74945679 18.10751221 66.98148804 19.03985596 67.22055054 C21.42266846 68.26742554 21.42266846 68.26742554 22.55641174 69.86192322 C23.74803498 73.17093359 23.69316997 76.33165466 23.66558838 79.80233765 C23.66748672 80.55566879 23.66938507 81.30899994 23.67134094 82.0851593 C23.67504112 84.57180234 23.66435394 87.05815226 23.65313721 89.54476929 C23.65194467 91.27585313 23.6514924 93.00693762 23.65174866 94.73802185 C23.65018501 98.36529596 23.64190536 101.99247122 23.628479 105.61972046 C23.61150212 110.26457605 23.60766443 114.90932291 23.60842419 119.55420589 C23.60815195 123.12901341 23.60266189 126.70379725 23.59542274 130.27859688 C23.59224488 131.99098087 23.59027073 133.70336754 23.58952904 135.41575432 C23.5873554 137.81158873 23.57858869 140.20730909 23.56793213 142.6031189 C23.56838531 143.30821594 23.5688385 144.01331299 23.56930542 144.73977661 C23.54513066 148.46602919 23.16331472 151.56419421 22.42266846 155.26742554 C17.47266846 156.25742554 17.47266846 156.25742554 12.42266846 157.26742554 C12.09266846 158.91742554 11.76266846 160.56742554 11.42266846 162.26742554 C24.62266846 162.26742554 37.82266846 162.26742554 51.42266846 162.26742554 C51.09266846 160.61742554 50.76266846 158.96742554 50.42266846 157.26742554 C49.37466064 157.08566772 49.37466064 157.08566772 48.30548096 156.90023804 C47.39540283 156.73265991 46.48532471 156.56508179 45.54766846 156.39242554 C44.64274658 156.23000366 43.73782471 156.06758179 42.80548096 155.90023804 C40.42266846 155.26742554 40.42266846 155.26742554 38.42266846 153.26742554 C37.05565409 149.5419116 37.19974233 145.58010372 37.10626221 141.65805054 C37.08548111 140.93124084 37.06470001 140.20443115 37.04328918 139.45559692 C36.97811333 137.14296562 36.91905806 134.83022461 36.86016846 132.51742554 C36.8169528 130.94579979 36.77333754 129.37418497 36.72930908 127.80258179 C36.6224649 123.95764101 36.52110822 120.1125903 36.42266846 116.26742554 C47.63977141 115.72422188 47.63977141 115.72422188 51.56915283 119.12533569 C53.33073547 121.6994353 54.77089126 124.29369754 56.17266846 127.07992554 C57.24923856 129.00933543 58.32995824 130.9364359 59.41485596 132.86117554 C59.92500244 133.79445679 60.43514893 134.72773804 60.96075439 135.68930054 C63.93476975 140.93405708 67.63672589 145.58540189 71.42266846 150.26742554 C72.02466064 151.04473022 72.62665283 151.82203491 73.24688721 152.62289429 C77.92541836 158.39483497 82.23604016 161.63491335 89.68048096 162.75961304 C96.62369788 163.46238148 96.62369788 163.46238148 103.42266846 162.26742554 C103.42266846 160.94742554 103.42266846 159.62742554 103.42266846 158.26742554 C101.50454346 157.80336304 101.50454346 157.80336304 99.54766846 157.32992554 C83.11883645 151.73385464 69.83472085 129.09153031 62.42266846 114.26742554 C63.10329346 114.18492554 63.78391846 114.10242554 64.48516846 114.01742554 C72.05684399 112.08423178 77.04025319 107.56985937 81.42266846 101.26742554 C85.19755912 94.37269876 86.62666207 87.93264548 84.98516846 80.20883179 C82.96775874 73.74051188 78.90603537 68.12700757 72.88360596 64.91195679 C67.38355889 62.66488741 62.33910566 61.13884868 56.37872314 61.15390015 C54.87761993 61.15401344 54.87761993 61.15401344 53.34619141 61.15412903 C51.73662567 61.16187096 51.73662567 61.16187096 50.09454346 61.16976929 C48.990401 61.17118423 47.88625854 61.17259918 46.74865723 61.17405701 C43.22330004 61.17965296 39.69800644 61.19220475 36.17266846 61.20492554 C33.78204437 61.20994106 31.3914193 61.21450387 29.00079346 61.21859741 C23.14139677 61.22962107 17.28203716 61.2463552 11.42266846 61.26742554 Z " fill="#060707" transform="translate(42.57733154296875,11.732574462890625)"/>
<path d="M0 0 C4.12974573 3.37888287 6.73127374 7.00113424 7.75 12.25 C8.43874207 20.15728872 7.2880685 25.2078909 3.0625 31.9375 C-2.60437446 37.60437446 -9.41322868 39.37239669 -17.24023438 39.38671875 C-17.96533203 39.38285156 -18.69042969 39.37898438 -19.4375 39.375 C-20.17419922 39.37886719 -20.91089844 39.38273437 -21.66992188 39.38671875 C-27.12331509 39.37668491 -27.12331509 39.37668491 -28.25 38.25 C-28.33871273 35.22022196 -28.3651935 32.21332978 -28.34765625 29.18359375 C-28.3462413 28.27497086 -28.34482635 27.36634796 -28.34336853 26.43019104 C-28.33775193 23.51592779 -28.32519665 20.60174019 -28.3125 17.6875 C-28.30748714 15.71679798 -28.30292386 13.74609476 -28.29882812 11.77539062 C-28.28777711 6.93356441 -28.27050138 2.09179505 -28.25 -2.75 C-18.62319934 -4.77855862 -8.79608617 -4.73635409 0 0 Z " fill="#101413" transform="translate(107.25,82.75)"/>
</svg>
