<?xml version="1.0" standalone="no"?>
<!DOCTYPE svg PUBLIC "-//W3C//DTD SVG 20010904//EN"
 "http://www.w3.org/TR/2001/REC-SVG-20010904/DTD/svg10.dtd">
<svg version="1.0" xmlns="http://www.w3.org/2000/svg"
 width="972.000000pt" height="972.000000pt" viewBox="0 0 972.000000 972.000000"
 preserveAspectRatio="xMidYMid meet">
<metadata>
Created by potrace 1.11, written by Peter Selinger 2001-2013
</metadata>
<g transform="translate(0.000000,972.000000) scale(0.100000,-0.100000)"
fill="#000000" stroke="none">
<path d="M7257 9314 c-100 -15 -267 -69 -359 -115 -325 -162 -549 -449 -629
-804 -18 -80 -18 -370 0 -450 80 -355 304 -642 629 -804 35 -18 112 -49 170
-69 l107 -37 295 0 295 0 107 37 c58 20 135 51 170 69 325 162 549 449 629
804 18 80 18 370 0 450 -127 562 -615 939 -1211 934 -63 -1 -154 -7 -203 -15z"/>
<path d="M2077 9294 c-100 -15 -267 -69 -359 -115 -325 -162 -549 -449 -629
-804 -18 -80 -18 -370 0 -450 80 -355 304 -642 629 -804 35 -18 112 -49 170
-69 l107 -37 295 0 295 0 107 37 c58 20 135 51 170 69 325 162 549 449 629
804 18 80 18 370 0 450 -127 562 -615 939 -1211 934 -63 -1 -154 -7 -203 -15z"/>
<path d="M3652 8429 c-26 -13 -55 -39 -70 -62 -23 -34 -27 -51 -27 -112 0 -61
4 -78 27 -112 16 -24 44 -49 70 -62 44 -21 49 -21 881 -21 l837 0 0 -625 0
-625 -187 0 c-170 0 -191 -2 -231 -21 -65 -32 -96 -85 -100 -173 -5 -96 17
-135 129 -229 48 -39 157 -132 244 -204 l157 -133 164 0 165 0 103 88 c57 48
171 144 254 214 175 148 197 181 190 278 -5 75 -40 130 -100 159 -40 19 -61
21 -221 21 l-177 0 -2 748 -3 748 -28 42 c-15 23 -46 54 -69 69 l-42 28 -960
3 -961 2 -43 -21z"/>
<path d="M7256 6978 c-3 -13 -6 -132 -6 -265 l0 -243 -177 0 c-205 0 -243 -11
-291 -83 -23 -34 -27 -51 -27 -112 0 -61 4 -78 27 -112 16 -24 44 -49 70 -62
43 -21 54 -21 583 -21 529 0 540 0 583 21 26 13 54 38 70 62 23 34 27 51 27
112 0 61 -4 78 -27 112 -47 71 -87 83 -281 83 l-167 0 0 243 c0 133 -3 252 -6
265 -6 22 -8 22 -189 22 -181 0 -183 0 -189 -22z"/>
<path d="M2081 6949 c-6 -18 -11 -87 -11 -155 l0 -123 -158 -3 c-154 -3 -160
-4 -200 -31 -61 -40 -95 -97 -100 -167 -6 -82 23 -140 92 -184 93 -60 226
-137 270 -156 24 -10 74 -37 111 -59 l67 -41 114 0 114 0 76 46 c42 25 96 55
122 66 42 19 219 120 303 174 115 73 101 273 -23 333 -40 19 -61 21 -221 21
l-177 0 0 124 c0 67 -5 137 -11 155 l-11 31 -173 0 -173 0 -11 -31z"/>
<path d="M5453 6012 c17 -7 18 -55 17 -929 0 -828 1 -923 16 -937 14 -15 193
-16 1904 -16 1704 0 1890 2 1904 16 14 14 16 111 16 924 0 813 -2 910 -16 924
-14 14 -188 16 -1768 16 -964 0 -1829 2 -1922 5 -93 3 -161 2 -151 -3z"/>
<path d="M306 5974 c-14 -14 -16 -111 -16 -924 0 -813 2 -910 16 -924 14 -14
200 -16 1904 -16 1704 0 1890 2 1904 16 14 14 16 111 16 924 0 813 -2 910 -16
924 -14 14 -200 16 -1904 16 -1704 0 -1890 -2 -1904 -16z"/>
<path d="M7453 4073 c-17 -26 -18 -85 -21 -1005 l-2 -978 -495 0 -495 0 0 167
c0 194 -12 234 -83 281 -34 23 -51 27 -112 27 -61 0 -78 -4 -112 -27 -24 -16
-49 -44 -62 -70 -21 -43 -21 -55 -21 -563 0 -508 0 -520 21 -563 13 -26 38
-54 62 -70 34 -23 51 -27 112 -27 61 0 78 4 112 27 70 46 83 88 83 271 l0 157
628 2 628 3 41 27 c24 16 49 44 62 70 l21 44 0 1090 c0 1017 -1 1091 -18 1124
l-17 35 -157 3 -157 3 -18 -28z"/>
<path d="M1673 4053 c-17 -26 -18 -90 -21 -1127 l-2 -1099 21 -44 c13 -27 37
-55 62 -71 l41 -27 518 -3 518 -3 0 -146 c0 -129 3 -152 21 -191 29 -60 84
-95 159 -100 91 -7 136 20 207 121 31 45 66 93 79 107 12 14 35 46 51 71 15
25 41 64 56 85 15 21 46 67 68 102 39 62 39 63 39 165 0 100 -1 105 -36 163
-19 32 -44 68 -55 80 -18 19 -42 52 -203 275 -69 96 -117 124 -206 117 -75 -5
-130 -40 -159 -100 -19 -39 -21 -62 -21 -201 l0 -157 -385 0 -385 0 0 968 c0
901 -1 969 -18 1002 l-17 35 -157 3 -157 3 -18 -28z"/>
<path d="M4517 2954 c-100 -15 -267 -69 -359 -115 -267 -133 -478 -363 -578
-632 -50 -132 -60 -201 -60 -397 0 -196 10 -265 60 -397 172 -459 630 -763
1150 -763 591 0 1075 377 1201 935 18 80 18 370 0 450 -127 562 -615 939
-1211 934 -63 -1 -154 -7 -203 -15z"/>
</g>
</svg>
